<svg xmlns="http://www.w3.org/2000/svg" width="64" height="64" viewBox="0 0 64 64"><defs><linearGradient id="g1" x1="0" y1="0" x2="0" y2="1"><stop offset="0" stop-color="#ffffff"/><stop offset="1" stop-color="#e0e0e0"/></linearGradient><linearGradient id="g2" x1="0" y1="0" x2="0.4" y2="1"><stop offset="0" stop-color="#9fbbe9"/><stop offset="1" stop-color="#2a6ad0"/></linearGradient><linearGradient id="g3" x1="0" y1="0" x2="0.4" y2="1"><stop offset="0" stop-color="#9fbbe9"/><stop offset="1" stop-color="#2a6ad0"/></linearGradient></defs><ellipse cx="32" cy="58" rx="24" ry="4" fill="#000" opacity="0.18"/><path d="M14 44 a10 10 0 0 1 4 -19 a13 13 0 0 1 24 -4 a10 10 0 0 1 10 23 Z" fill="url(#g1)" stroke="#2a5a9a" stroke-width="2" stroke-linejoin="round" stroke-linecap="round" /><path d="M21 33 A8 8 0 0 1 34.6 27.4" fill="none" stroke="#2a6ad0" stroke-width="3" stroke-linejoin="round" stroke-linecap="round" /><path d="M38.6 23.4 L37.6 32.4 L29.6 28.4 Z" fill="url(#g2)" stroke="#122f5d" stroke-width="1" stroke-linejoin="round" stroke-linecap="round" /><path d="M37 33 A8 8 0 0 1 23.4 38.6" fill="none" stroke="#2a6ad0" stroke-width="3" stroke-linejoin="round" stroke-linecap="round" /><path d="M19.4 42.6 L20.4 33.6 L28.4 37.6 Z" fill="url(#g3)" stroke="#122f5d" stroke-width="1" stroke-linejoin="round" stroke-linecap="round" /></svg>
