<svg xmlns="http://www.w3.org/2000/svg" width="64" height="64" viewBox="0 0 64 64"><defs><linearGradient id="g1" x1="0" y1="0" x2="0.4" y2="1"><stop offset="0" stop-color="#ffffff"/><stop offset="1" stop-color="#ffffff"/></linearGradient></defs><ellipse cx="32" cy="58" rx="24" ry="4" fill="#000" opacity="0.18"/><path d="M6 14 L54 10 L58 50 L10 54 Z" fill="url(#g1)" stroke="#727272" stroke-width="1.8" stroke-linejoin="round" stroke-linecap="round" /><rect x="14" y="16" width="12" height="12" fill="#f09090"/><rect x="26" y="28" width="12" height="12" fill="#90b0f0"/><path d="M14 16 H38 M14 28 H38 V40 M14 16 V28 M26 16 V40 H38" fill="none" stroke="#333" stroke-width="2" stroke-linejoin="round" stroke-linecap="round" /><circle cx="14" cy="16" r="1.8" fill="#222"/><circle cx="14" cy="28" r="1.8" fill="#222"/><circle cx="14" cy="40" r="1.8" fill="#222"/><circle cx="26" cy="16" r="1.8" fill="#222"/><circle cx="26" cy="28" r="1.8" fill="#222"/><circle cx="26" cy="40" r="1.8" fill="#222"/><circle cx="38" cy="16" r="1.8" fill="#222"/><circle cx="38" cy="28" r="1.8" fill="#222"/><circle cx="38" cy="40" r="1.8" fill="#222"/><circle cx="50" cy="16" r="1.8" fill="#222"/><circle cx="50" cy="28" r="1.8" fill="#222"/><circle cx="50" cy="40" r="1.8" fill="#222"/></svg>
