<svg xmlns="http://www.w3.org/2000/svg" width="64" height="64" viewBox="0 0 64 64"><defs><radialGradient id="g1" cx="0.35" cy="0.3" r="0.75"><stop offset="0" stop-color="#f4c1c1"/><stop offset="1" stop-color="#e05050"/></radialGradient><radialGradient id="g2" cx="0.35" cy="0.3" r="0.75"><stop offset="0" stop-color="#c1ddf4"/><stop offset="1" stop-color="#50a0e0"/></radialGradient><radialGradient id="g3" cx="0.35" cy="0.3" r="0.75"><stop offset="0" stop-color="#f9e8b6"/><stop offset="1" stop-color="#f0c030"/></radialGradient><radialGradient id="g4" cx="0.35" cy="0.3" r="0.75"><stop offset="0" stop-color="#c1e8c7"/><stop offset="1" stop-color="#50c060"/></radialGradient><radialGradient id="g5" cx="0.35" cy="0.3" r="0.75"><stop offset="0" stop-color="#ddc7ee"/><stop offset="1" stop-color="#a060d0"/></radialGradient></defs><ellipse cx="32" cy="58" rx="24" ry="4" fill="#000" opacity="0.18"/><path d="M14 16 L32 32" fill="none" stroke="#444" stroke-width="2" stroke-linejoin="round" stroke-linecap="round" /><path d="M48 14 L32 32" fill="none" stroke="#444" stroke-width="2" stroke-linejoin="round" stroke-linecap="round" /><path d="M32 32 L12 48" fill="none" stroke="#444" stroke-width="2" stroke-linejoin="round" stroke-linecap="round" /><path d="M32 32 L52 46" fill="none" stroke="#444" stroke-width="2" stroke-linejoin="round" stroke-linecap="round" /><path d="M14 16 L12 48" fill="none" stroke="#444" stroke-width="2" stroke-linejoin="round" stroke-linecap="round" /><path d="M48 14 L52 46" fill="none" stroke="#444" stroke-width="2" stroke-linejoin="round" stroke-linecap="round" /><circle cx="14" cy="16" r="6" fill="url(#g1)" stroke="#642424" stroke-width="1.4"/><circle cx="48" cy="14" r="6" fill="url(#g2)" stroke="#244864" stroke-width="1.4"/><circle cx="32" cy="32" r="6" fill="url(#g3)" stroke="#6b5615" stroke-width="1.4"/><circle cx="12" cy="48" r="6" fill="url(#g4)" stroke="#24562b" stroke-width="1.4"/><circle cx="52" cy="46" r="6" fill="url(#g5)" stroke="#482b5d" stroke-width="1.4"/></svg>
