<svg xmlns="http://www.w3.org/2000/svg" width="64" height="64" viewBox="0 0 64 64"><defs><linearGradient id="g1" x1="0" y1="0" x2="0" y2="1"><stop offset="0" stop-color="#f9f9f9"/><stop offset="1" stop-color="#f0f0f0"/></linearGradient></defs><ellipse cx="32" cy="58" rx="24" ry="4" fill="#000" opacity="0.18"/><path d="M10 8 H40 A6 6 0 0 1 46 14 V32 A6 6 0 0 1 40 38 H24 L18 47 L16 38 H10 A6 6 0 0 1 4 32 V14 A6 6 0 0 1 10 8 Z" fill="url(#g1)" stroke="#6b6b6b" stroke-width="2" stroke-linejoin="round" stroke-linecap="round" /><path d="M14 22 Q25 14 36 22 Q25 32 14 22 Z" fill="#e05060" stroke="#7a1a20" stroke-width="1.4" stroke-linejoin="round" stroke-linecap="round" /><path d="M48 35.5 a4.5 4.5 0 0 1 0 9" fill="none" stroke="#3a7ad8" stroke-width="1.98" stroke-linejoin="round" stroke-linecap="round" /><path d="M48 31 a9 9 0 0 1 0 18" fill="none" stroke="#3a7ad8" stroke-width="1.98" stroke-linejoin="round" stroke-linecap="round" /></svg>
